<svg width="540" height="160" xmlns="http://www.w3.org/2000/svg">
 <g id="Layer_1">
  <title>Layer 1</title>
  <g id="svg_2">
   <g id="svg_3" transform="translate(0 220) scale(4.00216 4.0011)">
    <path id="svg_4" fill="#FFF" d="m134.032,-19.71688a3.83,3.83 0 0 1 -3.834,3.83l-125.469,0a3.835,3.835 0 0 1 -3.839,-3.83l0,-30.543a3.84,3.84 0 0 1 3.839,-3.835l125.468,0a3.834,3.834 0 0 1 3.834,3.835l0.001,30.543z"/>
    <path id="svg_5" fill="#A6A6A6" d="m130.198,-14.99588l-125.469,0a4.73,4.73 0 0 1 -4.729,-4.721l0,-30.542a4.733,4.733 0 0 1 4.729,-4.726l125.468,0a4.735,4.735 0 0 1 4.729,4.726l0,30.542c0.002,2.604 -2.123,4.721 -4.728,4.721z"/>
    <path id="svg_6" d="m134.032,-19.71688a3.83,3.83 0 0 1 -3.834,3.83l-125.469,0a3.835,3.835 0 0 1 -3.839,-3.83l0,-30.543a3.84,3.84 0 0 1 3.839,-3.835l125.468,0a3.834,3.834 0 0 1 3.834,3.835l0.001,30.543z"/>
    <path id="svg_7" fill="#FFF" d="m30.128,-35.20088c-0.029,-3.223 2.639,-4.791 2.761,-4.864c-1.511,-2.203 -3.853,-2.504 -4.676,-2.528c-1.967,-0.207 -3.875,1.177 -4.877,1.177c-1.022,0 -2.565,-1.157 -4.228,-1.123c-2.14,0.033 -4.142,1.272 -5.24,3.196c-2.266,3.923 -0.576,9.688 1.595,12.859c1.086,1.554 2.355,3.287 4.016,3.226c1.625,-0.066 2.232,-1.035 4.193,-1.035c1.943,0 2.513,1.035 4.207,0.996c1.744,-0.027 2.842,-1.56 3.89,-3.127c1.255,-1.779 1.759,-3.533 1.779,-3.623c-0.04,-0.014 -3.386,-1.292 -3.42,-5.154zm-3.2,-9.478c0.874,-1.093 1.472,-2.58 1.306,-4.089c-1.265,0.056 -2.847,0.875 -3.758,1.944c-0.806,0.942 -1.526,2.486 -1.34,3.938c1.421,0.106 2.88,-0.717 3.792,-1.793z"/>
    <path id="svg_8" fill="url(#svg_1)" d="m130.198,-54.98488l-67.205,0l26.323,39.989l40.882,0a4.733,4.733 0 0 0 4.729,-4.724l0,-30.539a4.734,4.734 0 0 0 -4.729,-4.726z"/>
    <g id="svg_9" fill="#FFF">
     <path id="svg_10" d="m53.665,-23.48088l-2.271,0l-1.244,-3.909l-4.324,0l-1.185,3.909l-2.211,0l4.285,-13.308l2.646,0l4.304,13.308zm-3.89,-5.549l-1.125,-3.475c-0.119,-0.355 -0.343,-1.191 -0.671,-2.507l-0.04,0c-0.132,0.566 -0.343,1.402 -0.632,2.507l-1.106,3.475l3.574,0zm14.888,0.633c0,1.632 -0.443,2.922 -1.33,3.869c-0.794,0.843 -1.781,1.264 -2.958,1.264c-1.271,0 -2.185,-0.453 -2.74,-1.361l0,5.035l-2.132,0l0,-10.333c0,-1.025 -0.027,-2.076 -0.079,-3.154l1.875,0l0.119,1.521l0.04,0c0.711,-1.146 1.79,-1.719 3.238,-1.719c1.132,0 2.077,0.447 2.833,1.342c0.755,0.897 1.134,2.075 1.134,3.536zm-2.172,0.078c0,-0.934 -0.21,-1.704 -0.632,-2.311c-0.461,-0.631 -1.08,-0.947 -1.856,-0.947c-0.526,0 -1.004,0.176 -1.431,0.523c-0.428,0.35 -0.708,0.807 -0.839,1.373a2.784,2.784 0 0 0 -0.099,0.649l0,1.601c0,0.697 0.214,1.286 0.642,1.768c0.428,0.48 0.984,0.721 1.668,0.721c0.803,0 1.428,-0.311 1.875,-0.928c0.448,-0.619 0.672,-1.435 0.672,-2.449zm13.209,-0.078c0,1.632 -0.443,2.922 -1.33,3.869c-0.795,0.843 -1.781,1.264 -2.959,1.264c-1.271,0 -2.185,-0.453 -2.74,-1.361l0,5.035l-2.132,0l0,-10.333c0,-1.025 -0.027,-2.076 -0.079,-3.154l1.875,0l0.119,1.521l0.04,0c0.71,-1.146 1.789,-1.719 3.238,-1.719c1.131,0 2.076,0.447 2.834,1.342c0.754,0.897 1.134,2.075 1.134,3.536zm-2.173,0.078c0,-0.934 -0.211,-1.704 -0.633,-2.311c-0.461,-0.631 -1.078,-0.947 -1.854,-0.947c-0.526,0 -1.004,0.176 -1.433,0.523c-0.428,0.35 -0.707,0.807 -0.838,1.373c-0.065,0.264 -0.1,0.479 -0.1,0.649l0,1.601c0,0.697 0.215,1.286 0.641,1.768c0.428,0.479 0.984,0.721 1.67,0.721c0.804,0 1.429,-0.311 1.875,-0.928c0.448,-0.619 0.672,-1.435 0.672,-2.449zm14.513,1.105c0,1.133 -0.396,2.054 -1.183,2.765c-0.866,0.776 -2.075,1.165 -3.625,1.165c-1.432,0 -2.58,-0.276 -3.446,-0.829l0.493,-1.777c0.935,0.554 1.962,0.83 3.08,0.83c0.804,0 1.429,-0.182 1.875,-0.543c0.447,-0.362 0.673,-0.846 0.673,-1.45c0,-0.541 -0.187,-0.994 -0.554,-1.363c-0.369,-0.368 -0.979,-0.711 -1.836,-1.026c-2.33,-0.869 -3.496,-2.14 -3.496,-3.812c0,-1.092 0.412,-1.986 1.234,-2.685c0.822,-0.698 1.912,-1.047 3.268,-1.047c1.211,0 2.22,0.211 3.021,0.632l-0.535,1.738c-0.754,-0.408 -1.605,-0.612 -2.557,-0.612c-0.752,0 -1.342,0.185 -1.764,0.553c-0.355,0.329 -0.535,0.73 -0.535,1.206c0,0.525 0.205,0.961 0.613,1.303c0.354,0.315 1,0.658 1.934,1.026c1.146,0.462 1.988,1 2.527,1.618c0.543,0.618 0.813,1.389 0.813,2.308zm7.067,-4.263l-2.35,0l0,4.659c0,1.185 0.414,1.776 1.244,1.776c0.381,0 0.697,-0.032 0.947,-0.099l0.059,1.619c-0.42,0.157 -0.973,0.236 -1.658,0.236c-0.842,0 -1.5,-0.257 -1.975,-0.771c-0.473,-0.514 -0.711,-1.375 -0.711,-2.587l0,-4.837l-1.4,0l0,-1.6l1.4,0l0,-1.757l2.094,-0.632l0,2.389l2.35,0l0,1.604zm10.582,3.119c0,1.475 -0.422,2.686 -1.264,3.633c-0.881,0.975 -2.053,1.461 -3.514,1.461c-1.41,0 -2.531,-0.467 -3.367,-1.4c-0.836,-0.935 -1.254,-2.113 -1.254,-3.534c0,-1.487 0.432,-2.705 1.293,-3.652c0.863,-0.948 2.025,-1.422 3.486,-1.422c1.408,0 2.539,0.468 3.395,1.402c0.818,0.906 1.225,2.076 1.225,3.512zm-2.21,0.049c0,-0.879 -0.19,-1.633 -0.571,-2.264c-0.447,-0.762 -1.087,-1.143 -1.916,-1.143c-0.854,0 -1.509,0.381 -1.955,1.143c-0.382,0.631 -0.572,1.398 -0.572,2.304c0,0.88 0.19,1.636 0.572,2.265c0.461,0.762 1.104,1.143 1.937,1.143c0.815,0 1.454,-0.389 1.916,-1.162c0.392,-0.646 0.589,-1.405 0.589,-2.286zm9.143,-2.893a3.71,3.71 0 0 0 -0.672,-0.059c-0.75,0 -1.33,0.282 -1.738,0.85c-0.354,0.5 -0.532,1.132 -0.532,1.895l0,5.035l-2.132,0l0,-6.574a67.43,67.43 0 0 0 -0.062,-3.021l1.857,0l0.078,1.836l0.059,0c0.226,-0.631 0.58,-1.14 1.066,-1.521a2.578,2.578 0 0 1 1.541,-0.514c0.197,0 0.375,0.014 0.533,0.039l0.002,2.034zm9.535,2.469a5,5 0 0 1 -0.078,0.967l-6.396,0c0.024,0.948 0.334,1.674 0.928,2.174c0.539,0.446 1.236,0.67 2.092,0.67c0.947,0 1.811,-0.15 2.588,-0.453l0.334,1.479c-0.908,0.396 -1.98,0.593 -3.217,0.593c-1.488,0 -2.656,-0.438 -3.506,-1.312c-0.848,-0.875 -1.273,-2.051 -1.273,-3.524c0,-1.446 0.395,-2.651 1.186,-3.612c0.828,-1.026 1.947,-1.539 3.355,-1.539c1.383,0 2.43,0.513 3.141,1.539c0.563,0.813 0.846,1.821 0.846,3.018zm-2.033,-0.553c0.015,-0.633 -0.125,-1.178 -0.414,-1.639c-0.369,-0.594 -0.937,-0.89 -1.698,-0.89c-0.697,0 -1.265,0.289 -1.697,0.869c-0.355,0.461 -0.566,1.015 -0.631,1.658l4.44,0.002z"/>
    </g>
    <g id="svg_11" fill="#FFF">
     <path id="svg_12" d="m45.211,-41.49388c-0.593,0 -1.106,-0.029 -1.533,-0.078l0,-6.434a11.606,11.606 0 0 1 1.805,-0.136c2.445,0 3.571,1.203 3.571,3.164c0,2.262 -1.33,3.484 -3.843,3.484zm0.358,-5.823c-0.33,0 -0.611,0.02 -0.844,0.068l0,4.891c0.126,0.02 0.368,0.029 0.708,0.029c1.602,0 2.514,-0.912 2.514,-2.62c0,-1.523 -0.825,-2.368 -2.378,-2.368zm6.994,5.872c-1.378,0 -2.271,-1.029 -2.271,-2.426c0,-1.456 0.912,-2.494 2.349,-2.494c1.358,0 2.271,0.98 2.271,2.417c0,1.474 -0.941,2.503 -2.349,2.503zm0.04,-4.154c-0.757,0 -1.242,0.708 -1.242,1.698c0,0.971 0.495,1.679 1.232,1.679s1.232,-0.757 1.232,-1.699c0,-0.96 -0.485,-1.678 -1.222,-1.678zm10.167,-0.669l-1.475,4.716l-0.961,0l-0.611,-2.048a15.53,15.53 0 0 1 -0.379,-1.523l-0.02,0c-0.077,0.514 -0.223,1.029 -0.378,1.523l-0.65,2.048l-0.971,0l-1.388,-4.716l1.077,0l0.534,2.242c0.126,0.534 0.232,1.038 0.32,1.514l0.02,0c0.077,-0.397 0.203,-0.893 0.388,-1.504l0.67,-2.251l0.854,0l0.641,2.203c0.155,0.534 0.281,1.058 0.379,1.553l0.028,0c0.068,-0.485 0.175,-1 0.32,-1.553l0.573,-2.203l1.029,-0.001zm5.43,4.716l-1.048,0l0,-2.708c0,-0.834 -0.32,-1.252 -0.951,-1.252c-0.621,0 -1.048,0.534 -1.048,1.155l0,2.805l-1.048,0l0,-3.368c0,-0.417 -0.01,-0.864 -0.039,-1.349l0.922,0l0.049,0.728l0.029,0c0.282,-0.504 0.854,-0.824 1.495,-0.824c0.99,0 1.64,0.757 1.64,1.989l-0.001,2.824zm2.89,0l-1.049,0l0,-6.88l1.049,0l0,6.88zm3.821,0.107c-1.377,0 -2.271,-1.029 -2.271,-2.426c0,-1.456 0.912,-2.494 2.348,-2.494c1.359,0 2.271,0.98 2.271,2.417c0.001,1.474 -0.941,2.503 -2.348,2.503zm0.039,-4.154c-0.757,0 -1.242,0.708 -1.242,1.698c0,0.971 0.496,1.679 1.231,1.679c0.738,0 1.232,-0.757 1.232,-1.699c0.001,-0.96 -0.483,-1.678 -1.221,-1.678zm6.441,4.047l-0.076,-0.543l-0.028,0c-0.32,0.437 -0.787,0.65 -1.379,0.65c-0.845,0 -1.445,-0.592 -1.445,-1.388c0,-1.164 1.009,-1.766 2.756,-1.766l0,-0.087c0,-0.621 -0.329,-0.932 -0.979,-0.932c-0.465,0 -0.873,0.117 -1.232,0.35l-0.213,-0.689c0.436,-0.272 0.98,-0.408 1.619,-0.408c1.232,0 1.854,0.65 1.854,1.951l0,1.737c0,0.476 0.021,0.845 0.068,1.126l-0.945,-0.001zm-0.144,-2.349c-1.164,0 -1.748,0.282 -1.748,0.951c0,0.495 0.301,0.737 0.719,0.737c0.533,0 1.029,-0.407 1.029,-0.96l0,-0.728zm6.11,2.349l-0.049,-0.757l-0.029,0c-0.301,0.572 -0.807,0.864 -1.514,0.864c-1.137,0 -1.979,-1 -1.979,-2.407c0,-1.475 0.873,-2.514 2.065,-2.514c0.631,0 1.078,0.213 1.33,0.641l0.021,0l0,-2.707l1.049,0l0,5.609c0,0.456 0.011,0.883 0.039,1.271l-0.933,0zm-0.155,-2.775c0,-0.66 -0.437,-1.223 -1.104,-1.223c-0.777,0 -1.252,0.689 -1.252,1.659c0,0.951 0.493,1.602 1.231,1.602c0.659,0 1.125,-0.573 1.125,-1.252l0,-0.786zm7.7,2.882c-1.377,0 -2.27,-1.029 -2.27,-2.426c0,-1.456 0.912,-2.494 2.348,-2.494c1.359,0 2.271,0.98 2.271,2.417c0.001,1.474 -0.94,2.503 -2.349,2.503zm0.039,-4.154c-0.756,0 -1.241,0.708 -1.241,1.698c0,0.971 0.495,1.679 1.231,1.679c0.738,0 1.232,-0.757 1.232,-1.699c0.002,-0.96 -0.483,-1.678 -1.222,-1.678zm7.946,4.047l-1.049,0l0,-2.708c0,-0.834 -0.32,-1.252 -0.951,-1.252c-0.621,0 -1.047,0.534 -1.047,1.155l0,2.805l-1.049,0l0,-3.368c0,-0.417 -0.01,-0.864 -0.039,-1.349l0.922,0l0.049,0.728l0.029,0c0.281,-0.504 0.854,-0.825 1.494,-0.825c0.99,0 1.641,0.757 1.641,1.989l0,2.825zm7.051,-3.93l-1.153,0l0,2.29c0,0.583 0.202,0.874 0.61,0.874c0.185,0 0.34,-0.02 0.465,-0.049l0.029,0.796c-0.203,0.078 -0.475,0.117 -0.813,0.117c-0.826,0 -1.32,-0.456 -1.32,-1.65l0,-2.378l-0.688,0l0,-0.786l0.688,0l0,-0.864l1.029,-0.311l0,1.174l1.153,0l0,0.787zm5.548,3.93l-1.047,0l0,-2.688c0,-0.844 -0.319,-1.271 -0.951,-1.271c-0.543,0 -1.049,0.369 -1.049,1.116l0,2.843l-1.047,0l0,-6.88l1.047,0l0,2.833l0.021,0c0.33,-0.514 0.808,-0.767 1.418,-0.767c0.998,0 1.608,0.776 1.608,2.009l0,2.805zm5.684,-2.106l-3.145,0c0.02,0.893 0.611,1.397 1.486,1.397c0.465,0 0.893,-0.078 1.271,-0.223l0.163,0.728c-0.446,0.194 -0.971,0.291 -1.582,0.291c-1.475,0 -2.348,-0.932 -2.348,-2.377c0,-1.446 0.894,-2.533 2.23,-2.533c1.205,0 1.961,0.893 1.961,2.242a2.02,2.02 0 0 1 -0.036,0.475zm-0.961,-0.747c0,-0.728 -0.367,-1.242 -1.037,-1.242c-0.602,0 -1.078,0.524 -1.146,1.242l2.183,0z"/>
    </g>
   </g>
  </g>
 </g>
 <defs>
  <linearGradient id="svg_1" x1="0.49998" y1="1.00266" x2="0.49998" y2="-2.60383">
   <stop offset="0" stop-color="#1a1a1a" stop-opacity="0.1"/>
   <stop offset="0.123" stop-color="#212121" stop-opacity="0.151"/>
   <stop offset="0.308" stop-color="#353535" stop-opacity="0.227"/>
   <stop offset="0.532" stop-color="#575757" stop-opacity="0.318"/>
   <stop offset="0.783" stop-color="#858585" stop-opacity="0.421"/>
   <stop offset="1" stop-color="#b3b3b3" stop-opacity="0.51"/>
  </linearGradient>
 </defs>
</svg>