<svg width="135" height="40.00000000000001" xmlns="http://www.w3.org/2000/svg">
 <g id="Layer_1">
  <title>Layer 1</title>
  <g id="svg_1">
   <path id="svg_6" d="m130,40l-125,0c-2.8,0 -5,-2.2 -5,-5l0,-30c0,-2.8 2.2,-5 5,-5l125,0c2.8,0 5,2.2 5,5l0,30c0,2.8 -2.2,5 -5,5z"/>
   <path id="svg_7" class="st0" d="m130,0.8c2.3,0 4.2,1.9 4.2,4.2l0,30c0,2.3 -1.9,4.2 -4.2,4.2l-125,0c-2.3,0 -4.2,-1.9 -4.2,-4.2l0,-30c0,-2.3 1.9,-4.2 4.2,-4.2l125,0m0,-0.8l-125,0c-2.8,0 -5,2.3 -5,5l0,30c0,2.8 2.2,5 5,5l125,0c2.8,0 5,-2.2 5,-5l0,-30c0,-2.7 -2.2,-5 -5,-5z" fill="#a6a6a6"/>
   <path id="svg_8" class="st1" d="m47.4,10.2c0,0.8 -0.2,1.5 -0.7,2c-0.6,0.6 -1.3,0.9 -2.2,0.9c-0.9,0 -1.6,-0.3 -2.2,-0.9c-0.6,-0.6 -0.9,-1.3 -0.9,-2.2c0,-0.9 0.3,-1.6 0.9,-2.2c0.6,-0.6 1.3,-0.9 2.2,-0.9c0.4,0 0.8,0.1 1.2,0.3c0.4,0.2 0.7,0.4 0.9,0.7l-0.5,0.5c-0.4,-0.5 -0.9,-0.7 -1.6,-0.7c-0.6,0 -1.2,0.2 -1.6,0.7c-0.5,0.4 -0.7,1 -0.7,1.7s0.2,1.3 0.7,1.7c0.5,0.4 1,0.7 1.6,0.7c0.7,0 1.2,-0.2 1.7,-0.7c0.3,-0.3 0.5,-0.7 0.5,-1.2l-2.2,0l0,-0.8l2.9,0l0,0.4zm4.6,-2.5l-2.7,0l0,1.9l2.5,0l0,0.7l-2.5,0l0,1.9l2.7,0l0,0.8l-3.5,0l0,-6l3.5,0l0,0.7zm3.3,5.3l-0.8,0l0,-5.3l-1.7,0l0,-0.7l4.2,0l0,0.7l-1.7,0l0,5.3zm4.6,0l0,-6l0.8,0l0,6l-0.8,0zm4.2,0l-0.8,0l0,-5.3l-1.7,0l0,-0.7l4.1,0l0,0.7l-1.7,0l0,5.3l0.1,0zm9.5,-0.8c-0.6,0.6 -1.3,0.9 -2.2,0.9c-0.9,0 -1.6,-0.3 -2.2,-0.9c-0.6,-0.6 -0.9,-1.3 -0.9,-2.2s0.3,-1.6 0.9,-2.2c0.6,-0.6 1.3,-0.9 2.2,-0.9c0.9,0 1.6,0.3 2.2,0.9c0.6,0.6 0.9,1.3 0.9,2.2c0,0.9 -0.3,1.6 -0.9,2.2zm-3.8,-0.5c0.4,0.4 1,0.7 1.6,0.7c0.6,0 1.2,-0.2 1.6,-0.7c0.4,-0.4 0.7,-1 0.7,-1.7s-0.2,-1.3 -0.7,-1.7c-0.4,-0.4 -1,-0.7 -1.6,-0.7c-0.6,0 -1.2,0.2 -1.6,0.7c-0.4,0.4 -0.7,1 -0.7,1.7s0.2,1.3 0.7,1.7zm5.8,1.3l0,-6l0.9,0l2.9,4.7l0,-4.7l0.8,0l0,6l-0.8,0l-3.1,-4.9l0,4.9l-0.7,0z" stroke="#ffffff" stroke-width="0.2" stroke-miterlimit="10" fill="#fff"/>
   <path id="svg_9" class="st2" d="m68.1,21.8c-2.4,0 -4.3,1.8 -4.3,4.3c0,2.4 1.9,4.3 4.3,4.3s4.3,-1.8 4.3,-4.3c0,-2.6 -1.9,-4.3 -4.3,-4.3zm0,6.8c-1.3,0 -2.4,-1.1 -2.4,-2.6s1.1,-2.6 2.4,-2.6c1.3,0 2.4,1 2.4,2.6c0,1.5 -1.1,2.6 -2.4,2.6zm-9.3,-6.8c-2.4,0 -4.3,1.8 -4.3,4.3c0,2.4 1.9,4.3 4.3,4.3s4.3,-1.8 4.3,-4.3c0,-2.6 -1.9,-4.3 -4.3,-4.3zm0,6.8c-1.3,0 -2.4,-1.1 -2.4,-2.6s1.1,-2.6 2.4,-2.6c1.3,0 2.4,1 2.4,2.6c0,1.5 -1.1,2.6 -2.4,2.6zm-11.1,-5.5l0,1.8l4.3,0c-0.1,1 -0.5,1.8 -1,2.3c-0.6,0.6 -1.6,1.3 -3.3,1.3c-2.7,0 -4.7,-2.1 -4.7,-4.8s2.1,-4.8 4.7,-4.8c1.4,0 2.5,0.6 3.3,1.3l1.3,-1.3c-1.1,-1 -2.5,-1.8 -4.5,-1.8c-3.6,0 -6.7,3 -6.7,6.6c0,3.6 3.1,6.6 6.7,6.6c2,0 3.4,-0.6 4.6,-1.9c1.2,-1.2 1.6,-2.9 1.6,-4.2c0,-0.4 0,-0.8 -0.1,-1.1l-6.2,0zm45.4,1.4c-0.4,-1 -1.4,-2.7 -3.6,-2.7s-4,1.7 -4,4.3c0,2.4 1.8,4.3 4.2,4.3c1.9,0 3.1,-1.2 3.5,-1.9l-1.4,-1c-0.5,0.7 -1.1,1.2 -2.1,1.2s-1.6,-0.4 -2.1,-1.3l5.7,-2.4l-0.2,-0.5zm-5.8,1.4c0,-1.6 1.3,-2.5 2.2,-2.5c0.7,0 1.4,0.4 1.6,0.9l-3.8,1.6zm-4.7,4.1l1.9,0l0,-12.5l-1.9,0l0,12.5zm-3,-7.3c-0.5,-0.5 -1.3,-1 -2.3,-1c-2.1,0 -4.1,1.9 -4.1,4.3s1.9,4.2 4.1,4.2c1,0 1.8,-0.5 2.2,-1l0.1,0l0,0.6c0,1.6 -0.9,2.5 -2.3,2.5c-1.1,0 -1.9,-0.8 -2.1,-1.5l-1.6,0.7c0.5,1.1 1.7,2.5 3.8,2.5c2.2,0 4,-1.3 4,-4.4l0,-7.6l-1.8,0l0,0.7zm-2.2,5.9c-1.3,0 -2.4,-1.1 -2.4,-2.6s1.1,-2.6 2.4,-2.6c1.3,0 2.3,1.1 2.3,2.6s-1,2.6 -2.3,2.6zm24.4,-11.1l-4.5,0l0,12.5l1.9,0l0,-4.7l2.6,0c2.1,0 4.1,-1.5 4.1,-3.9s-2,-3.9 -4.1,-3.9zm0.1,6l-2.7,0l0,-4.3l2.7,0c1.4,0 2.2,1.2 2.2,2.1c-0.1,1.1 -0.9,2.2 -2.2,2.2zm11.5,-1.8c-1.4,0 -2.8,0.6 -3.3,1.9l1.7,0.7c0.4,-0.7 1,-0.9 1.7,-0.9c1,0 1.9,0.6 2,1.6l0,0.1c-0.3,-0.2 -1.1,-0.5 -1.9,-0.5c-1.8,0 -3.6,1 -3.6,2.8c0,1.7 1.5,2.8 3.1,2.8c1.3,0 1.9,-0.6 2.4,-1.2l0.1,0l0,1l1.8,0l0,-4.8c-0.2,-2.2 -1.9,-3.5 -4,-3.5zm-0.2,6.9c-0.6,0 -1.5,-0.3 -1.5,-1.1c0,-1 1.1,-1.3 2,-1.3c0.8,0 1.2,0.2 1.7,0.4c-0.2,1.2 -1.2,2 -2.2,2zm10.5,-6.6l-2.1,5.4l-0.1,0l-2.2,-5.4l-2,0l3.3,7.6l-1.9,4.2l1.9,0l5.1,-11.8l-2,0zm-16.8,8l1.9,0l0,-12.5l-1.9,0l0,12.5z" fill="#fff"/>
   <g id="svg_10">
    <path id="svg_11" class="st3" d="m10.4,7.5c-0.3,0.3 -0.4,0.8 -0.4,1.4l0,22.1c0,0.6 0.2,1.1 0.5,1.4l0.1,0.1l12.4,-12.4l0,-0.2l-12.6,-12.4z" fill="url(#svg_5)"/>
    <path id="svg_12" class="st4" d="m27,24.3l-4.1,-4.1l0,-0.3l4.1,-4.1l0.1,0.1l4.9,2.8c1.4,0.8 1.4,2.1 0,2.9l-5,2.7z" fill="url(#svg_4)"/>
    <path id="svg_13" class="st5" d="m27.1,24.2l-4.2,-4.2l-12.5,12.5c0.5,0.5 1.2,0.5 2.1,0.1l14.6,-8.4" fill="url(#svg_3)"/>
    <path id="svg_14" class="st6" d="m27.1,15.8l-14.6,-8.3c-0.9,-0.5 -1.6,-0.4 -2.1,0.1l12.5,12.4l4.2,-4.2z" fill="url(#svg_2)"/>
    <path id="svg_15" class="st7" d="m27,24.1l-14.5,8.2c-0.8,0.5 -1.5,0.4 -2,0l-0.1,0.1l0.1,0.1c0.5,0.4 1.2,0.5 2,0l14.5,-8.4z" opacity="0.2" enable-background="new"/>
    <path id="svg_16" class="st8" d="m10.4,32.3c-0.3,-0.3 -0.4,-0.8 -0.4,-1.4l0,0.1c0,0.6 0.2,1.1 0.5,1.4l0,-0.1l-0.1,0zm21.6,-11l-5,2.8l0.1,0.1l4.9,-2.8c0.7,-0.4 1,-0.9 1,-1.4c0,0.5 -0.4,0.9 -1,1.3z" opacity="0.12" enable-background="new"/>
    <path id="svg_17" class="st9" d="m12.5,7.6l19.5,11.1c0.6,0.4 1,0.8 1,1.3c0,-0.5 -0.3,-1 -1,-1.4l-19.5,-11.1c-1.4,-0.8 -2.5,-0.2 -2.5,1.4l0,0.1c0,-1.5 1.1,-2.2 2.5,-1.4z" opacity="0.25" enable-background="new" fill="#fff"/>
   </g>
  </g>
 </g>
 <defs>
  <linearGradient id="svg_5" x1="0.90769" y1="0.0484" x2="-0.38331" y2="0.71968">
   <stop offset="0" stop-color="#00a0ff"/>
   <stop offset="0.007" stop-color="#00a1ff"/>
   <stop offset="0.26" stop-color="#00beff"/>
   <stop offset="0.512" stop-color="#00d2ff"/>
   <stop offset="0.76" stop-color="#00dfff"/>
   <stop offset="1" stop-color="#00e3ff"/>
  </linearGradient>
  <linearGradient id="svg_4" x1="1.07724" y1="0.49423" x2="-1.3067" y2="0.49423">
   <stop offset="0" stop-color="#ffe000"/>
   <stop offset="0.409" stop-color="#ffbd00"/>
   <stop offset="0.775" stop-color="orange"/>
   <stop offset="1" stop-color="#ff9c00"/>
  </linearGradient>
  <linearGradient id="svg_3" x1="0.86389" y1="0.17814" x2="-0.49886" y2="1.9439">
   <stop offset="0" stop-color="#ff3a44"/>
   <stop offset="1" stop-color="#c31162"/>
  </linearGradient>
  <linearGradient id="svg_2" x1="-0.18581" y1="-0.54528" x2="0.42275" y2="0.24692">
   <stop offset="0" stop-color="#32a071"/>
   <stop offset="0.069" stop-color="#2da771"/>
   <stop offset="0.476" stop-color="#15cf74"/>
   <stop offset="0.801" stop-color="#06e775"/>
   <stop offset="1" stop-color="#00f076"/>
  </linearGradient>
 </defs>
</svg>